<?xml version="1.0" encoding="UTF-8" standalone="no"?>
<svg
   xml:space="preserve"
   style="clip-rule:evenodd;fill-rule:evenodd;stroke-linejoin:round;stroke-miterlimit:2"
   viewBox="0 0 150 150"
   version="1.1"
   id="svg46"
   sodipodi:docname="Free SVG Logo 6 (by FreeLogo.me).svg"
   width="150"
   height="150"
   xmlns:inkscape="http://www.inkscape.org/namespaces/inkscape"
   xmlns:sodipodi="http://sodipodi.sourceforge.net/DTD/sodipodi-0.dtd"
   xmlns="http://www.w3.org/2000/svg"
   xmlns:svg="http://www.w3.org/2000/svg"><defs
     id="defs50" /><sodipodi:namedview
     id="namedview48"
     pagecolor="#ffffff"
     bordercolor="#666666"
     borderopacity="1.0"
     inkscape:showpageshadow="2"
     inkscape:pageopacity="0.0"
     inkscape:pagecheckerboard="0"
     inkscape:deskcolor="#d1d1d1"
     showgrid="false" /><path
     d="m 75.003,0.003 c -41.42,0 -75,33.58 -75,75 0,41.394 33.606,75 75,75 41.421,0 75,-33.579 75,-75 h -37.539 c 0,20.69 -16.771,37.461 -37.46,37.461 -20.677,0 -37.462,-16.785 -37.462,-37.46 0,-20.69 16.772,-37.462 37.461,-37.462 z"
     id="path42" /><path
     d="m 149.994,0 h -63.16 v 21.055 a 42.097,42.097 0 0 0 12.339,29.775 42.09,42.09 0 0 0 29.766,12.333 h 21.056 V 0 Z"
     id="path44"
     style="fill:#0155d6;fill-opacity:1;fill-rule:evenodd" /></svg>
